# Blender 4.5.4 LTS
# www.blender.org
mtllib mesh_0.mtl
o Circle
v -1.069816 1.350457 0.000000
v 0.131197 -1.279235 -0.000000
v 0.213783 -0.022276 -0.000000
v 0.019574 0.693139 0.000000
v 0.169158 -0.394193 -0.000000
v 0.080027 0.238804 0.000000
v -0.251898 1.085105 0.000000
v -1.036496 1.310473 0.872979
v 0.132027 -1.214354 0.489173
v -0.179549 -0.087351 0.961392
v -0.342200 0.685915 1.099050
v -0.251117 -0.592794 0.669718
v -0.229642 0.232871 1.016572
v -0.551314 1.058303 1.110695
v 0.150178 -0.836714 -0.000000
v 0.183557 0.104932 0.000000
v -0.116162 0.889122 0.000000
v 0.251446 -0.201571 -0.000000
v 0.066460 0.455975 0.000000
v -0.660857 1.217781 0.000000
v 0.131166 -0.965627 0.662105
v -0.190127 0.094070 0.993968
v -0.424221 0.902403 1.116419
v -0.189414 -0.267064 0.818168
v -0.271005 0.438774 1.059055
v -0.687513 1.185286 1.073720
v -0.251898 1.078442 0.529785
v -1.069816 1.343793 0.529785
v 0.131612 -1.276783 0.184611
v 0.089191 -0.364852 0.236034
v 0.000536 -0.025250 0.370495
v 0.006723 0.211300 0.464153
v 0.019574 0.686475 0.529785
v -0.116162 0.882458 0.529785
v -0.059954 0.436961 0.549007
v -0.029690 0.093025 0.417324
v 0.051527 -0.198149 0.302038
v 0.150385 -0.795504 0.340538
v -0.660857 1.211117 0.529785
v -0.415204 1.659651 0.573346
v -0.182760 1.594571 0.535249
v -0.182760 1.439178 0.793203
v -0.415204 1.504258 0.831300
v -0.146565 2.014068 1.877397
v -0.030046 2.165767 1.869937
v 0.138027 2.043305 1.981311
v 0.021508 1.891605 1.988771
v -0.508199 2.498016 2.797697
v -0.358785 2.598505 2.732718
v -0.240867 2.553841 2.932092
v -0.390281 2.453352 2.997071
v -0.616068 2.972950 3.072478
v -0.578275 2.998367 3.056041
v -0.548448 2.987070 3.106472
v -0.586242 2.961653 3.122908
v -0.143546 1.868643 1.453153
v -0.143546 1.671434 1.598135
v 0.053377 1.831720 1.404229
v 0.053377 1.634510 1.549212
v -0.123141 2.336564 1.428225
v -0.020277 2.373995 1.396399
v -0.158580 2.259031 1.209397
v -0.044632 2.294399 1.180264
v -0.422300 3.116391 1.155989
v -0.360832 3.182212 1.126777
v -0.491160 3.104254 0.973900
v -0.420141 3.171146 0.944120
v -0.718104 3.464146 1.174048
v -0.694132 3.489815 1.162655
v -0.744959 3.459412 1.103034
v -0.717262 3.485500 1.091420
v -1.036496 1.310473 -0.872979
v 0.132027 -1.214354 -0.489173
v -0.179549 -0.087351 -0.961392
v -0.342200 0.685915 -1.099050
v -0.251117 -0.592794 -0.669718
v -0.229642 0.232871 -1.016572
v -0.551314 1.058303 -1.110695
v 0.131166 -0.965627 -0.662105
v -0.190127 0.094070 -0.993968
v -0.424221 0.902403 -1.116419
v -0.189414 -0.267064 -0.818168
v -0.271005 0.438774 -1.059055
v -0.687513 1.185286 -1.073720
v -0.251898 1.078442 -0.529785
v -1.069816 1.343793 -0.529785
v 0.131612 -1.276783 -0.184611
v 0.089191 -0.364852 -0.236034
v 0.000536 -0.025250 -0.370495
v 0.006723 0.211300 -0.464153
v 0.019574 0.686475 -0.529785
v -0.116162 0.882458 -0.529785
v -0.059954 0.436961 -0.549007
v -0.029690 0.093025 -0.417324
v 0.051527 -0.198149 -0.302038
v 0.150385 -0.795504 -0.340538
v -0.660857 1.211117 -0.529785
v -0.415204 1.659651 -0.573346
v -0.182760 1.594571 -0.535249
v -0.182760 1.439178 -0.793202
v -0.415204 1.504258 -0.831299
v -0.146565 2.014068 -1.877397
v -0.030046 2.165767 -1.869937
v 0.138027 2.043305 -1.981311
v 0.021508 1.891605 -1.988771
v -0.508199 2.498017 -2.797697
v -0.358785 2.598505 -2.732718
v -0.240867 2.553842 -2.932092
v -0.390281 2.453353 -2.997071
v -0.616068 2.972950 -3.072477
v -0.578275 2.998368 -3.056041
v -0.548448 2.987071 -3.106472
v -0.586242 2.961653 -3.122907
v -0.143546 1.868644 -1.453152
v -0.143546 1.671434 -1.598135
v 0.053377 1.831720 -1.404229
v 0.053377 1.634511 -1.549212
v -0.123141 2.336564 -1.428225
v -0.020277 2.373995 -1.396398
v -0.158580 2.259031 -1.209397
v -0.044632 2.294399 -1.180263
v -0.422300 3.116391 -1.155989
v -0.360832 3.182212 -1.126777
v -0.491160 3.104254 -0.973900
v -0.420141 3.171146 -0.944120
v -0.718104 3.464146 -1.174047
v -0.694132 3.489815 -1.162655
v -0.744959 3.459412 -1.103034
v -0.717262 3.485500 -1.091420
vn 0.4160 0.8957 0.1572
vn 0.9991 -0.0353 0.0239
vn 0.8597 -0.2386 0.4516
vn 0.9577 0.0556 0.2822
vn 0.9163 0.1163 0.3833
vn 0.7956 0.4009 0.4543
vn 0.7369 0.5567 0.3835
vn 0.8221 0.5694 0.0072
vn 0.8828 -0.0344 0.4686
vn 0.9915 -0.0620 0.1147
vn 0.9705 0.1380 0.1976
vn 0.9400 -0.0783 0.3319
vn 0.9311 0.1901 0.3112
vn 0.8716 0.1242 0.4742
vn 0.9340 -0.0974 0.3437
vn 0.8467 0.1120 0.5201
vn 0.8657 -0.1924 0.4620
vn 0.6910 0.4497 0.5659
vn 0.9896 0.0633 0.1292
vn 0.9991 -0.0412 0.0022
vn 0.3070 0.9498 0.0610
vn 0.3086 0.9511 0.0120
vn 0.9908 -0.1324 -0.0272
vn -0.9226 -0.2485 0.2950
vn 0.1822 0.7200 -0.6696
vn -0.1409 -0.6075 0.7817
vn -0.8769 0.4708 0.0969
vn 0.6487 -0.5262 0.5498
vn -0.5567 0.7286 0.3991
vn 0.3762 -0.7876 0.4880
vn 0.9252 0.2918 -0.2427
vn 0.7229 0.6287 -0.2867
vn 0.6203 0.7684 -0.1576
vn -0.6243 -0.7638 0.1638
vn -0.6550 0.5383 -0.5303
vn -0.3794 0.8293 0.4102
vn -0.8212 -0.4139 0.3930
vn -0.5508 0.3207 -0.7706
vn 0.4302 -0.0572 0.9009
vn 0.9472 -0.2412 -0.2111
vn -0.1676 -0.9450 0.2808
vn 0.1655 0.9430 -0.2886
vn -0.9293 0.2779 0.2432
vn -0.1282 -0.3107 -0.9418
vn -0.2144 -0.4913 -0.8442
vn 0.9909 0.1346 0.0042
vn -0.9984 0.0454 0.0346
vn -0.4141 0.0348 -0.9095
vn -0.9175 -0.2637 0.2977
vn 0.9140 0.3097 -0.2622
vn 0.1159 0.3623 0.9248
vn -0.6539 0.7341 0.1831
vn -0.7156 -0.6249 0.3123
vn 0.6415 0.7245 -0.2522
vn 0.2635 0.1749 0.9487
vn 0.4160 0.8957 -0.1572
vn 0.9991 -0.0353 -0.0239
vn 0.8597 -0.2386 -0.4516
vn 0.9577 0.0556 -0.2822
vn 0.9163 0.1163 -0.3833
vn 0.7956 0.4009 -0.4543
vn 0.7369 0.5567 -0.3835
vn 0.8221 0.5694 -0.0072
vn 0.8828 -0.0344 -0.4686
vn 0.9915 -0.0620 -0.1147
vn 0.9705 0.1380 -0.1976
vn 0.9400 -0.0783 -0.3319
vn 0.9311 0.1901 -0.3112
vn 0.8716 0.1242 -0.4742
vn 0.9340 -0.0974 -0.3437
vn 0.8467 0.1120 -0.5201
vn 0.8657 -0.1924 -0.4620
vn 0.6910 0.4497 -0.5659
vn 0.9896 0.0633 -0.1292
vn 0.9991 -0.0412 -0.0022
vn 0.3070 0.9498 -0.0610
vn 0.3086 0.9511 -0.0120
vn 0.9908 -0.1324 0.0272
vn -0.9226 -0.2485 -0.2950
vn 0.1822 0.7200 0.6696
vn -0.1409 -0.6075 -0.7817
vn -0.8769 0.4708 -0.0969
vn 0.6487 -0.5262 -0.5498
vn -0.5567 0.7286 -0.3991
vn 0.3762 -0.7876 -0.4880
vn 0.9252 0.2918 0.2427
vn 0.7229 0.6287 0.2867
vn 0.6203 0.7684 0.1576
vn -0.6243 -0.7638 -0.1638
vn -0.6550 0.5383 0.5303
vn -0.3794 0.8293 -0.4102
vn -0.8212 -0.4139 -0.3930
vn -0.5508 0.3207 0.7706
vn 0.4302 -0.0572 -0.9009
vn 0.9472 -0.2412 0.2111
vn -0.1676 -0.9450 -0.2808
vn 0.1655 0.9430 0.2886
vn -0.9293 0.2779 -0.2432
vn -0.1282 -0.3107 0.9418
vn -0.2144 -0.4913 0.8442
vn 0.9909 0.1346 -0.0042
vn -0.9984 0.0454 -0.0346
vn -0.4141 0.0348 0.9095
vn -0.9175 -0.2637 -0.2977
vn 0.9140 0.3097 0.2622
vn 0.1159 0.3623 -0.9248
vn -0.6539 0.7341 -0.1831
vn -0.7156 -0.6249 -0.3123
vn 0.6415 0.7245 0.2522
vn 0.2635 0.1749 -0.9487
vt 0.000000 0.000000
s 0
f 39/1/1 26/1/1 14/1/1 27/1/1
f 38/1/2 21/1/2 9/1/2 29/1/2
f 37/1/3 24/1/3 12/1/3 30/1/3
f 36/1/4 22/1/4 10/1/4 31/1/4
f 35/1/5 25/1/5 13/1/5 32/1/5
f 34/1/6 23/1/6 11/1/6 33/1/6
f 27/1/7 14/1/7 23/1/7 34/1/7
f 7/1/8 27/1/8 34/1/8 17/1/8
f 17/1/8 34/1/8 33/1/8 4/1/8
f 33/1/9 11/1/9 25/1/9 35/1/9
f 4/1/10 33/1/10 35/1/10 19/1/10
f 19/1/11 35/1/11 32/1/11 6/1/11
f 32/1/12 13/1/12 22/1/12 36/1/12
f 6/1/13 32/1/13 36/1/13 16/1/13
f 16/1/14 36/1/14 31/1/14 3/1/14
f 31/1/15 10/1/15 24/1/15 37/1/15
f 3/1/16 31/1/16 37/1/16 18/1/16
f 18/1/17 37/1/17 30/1/17 5/1/17
f 30/1/18 12/1/18 21/1/18 38/1/18
f 5/1/19 30/1/19 38/1/19 15/1/19
f 15/1/20 38/1/20 29/1/20 2/1/20
f 28/1/21 8/1/21 26/1/21 39/1/21
f 1/1/22 28/1/22 39/1/22 20/1/22
f 7/1/23 41/1/23 42/1/23 27/1/23
f 57/1/24 47/1/24 44/1/24 56/1/24
f 20/1/25 40/1/25 41/1/25 7/1/25
f 27/1/26 42/1/26 43/1/26 39/1/26
f 39/1/27 43/1/27 40/1/27 20/1/27
f 46/1/28 50/1/28 51/1/28 47/1/28
f 45/1/29 61/1/29 60/1/29 44/1/29
f 59/1/30 46/1/30 47/1/30 57/1/30
f 58/1/31 45/1/31 46/1/31 59/1/31
f 49/1/32 53/1/32 54/1/32 50/1/32
f 45/1/33 49/1/33 50/1/33 46/1/33
f 47/1/34 51/1/34 48/1/34 44/1/34
f 44/1/35 48/1/35 49/1/35 45/1/35
f 52/1/36 55/1/36 54/1/36 53/1/36
f 51/1/37 55/1/37 52/1/37 48/1/37
f 48/1/38 52/1/38 53/1/38 49/1/38
f 50/1/39 54/1/39 55/1/39 51/1/39
f 41/1/40 58/1/40 59/1/40 42/1/40
f 42/1/41 59/1/41 57/1/41 43/1/41
f 40/1/42 56/1/42 58/1/42 41/1/42
f 43/1/43 57/1/43 56/1/43 40/1/43
f 62/1/44 66/1/44 67/1/44 63/1/44
f 56/1/45 62/1/45 63/1/45 58/1/45
f 58/1/46 63/1/46 61/1/46 45/1/46
f 44/1/47 60/1/47 62/1/47 56/1/47
f 66/1/48 70/1/48 71/1/48 67/1/48
f 60/1/49 64/1/49 66/1/49 62/1/49
f 63/1/50 67/1/50 65/1/50 61/1/50
f 61/1/51 65/1/51 64/1/51 60/1/51
f 70/1/52 68/1/52 69/1/52 71/1/52
f 64/1/53 68/1/53 70/1/53 66/1/53
f 67/1/54 71/1/54 69/1/54 65/1/54
f 65/1/55 69/1/55 68/1/55 64/1/55
f 97/1/56 85/1/56 78/1/56 84/1/56
f 96/1/57 87/1/57 73/1/57 79/1/57
f 95/1/58 88/1/58 76/1/58 82/1/58
f 94/1/59 89/1/59 74/1/59 80/1/59
f 93/1/60 90/1/60 77/1/60 83/1/60
f 92/1/61 91/1/61 75/1/61 81/1/61
f 85/1/62 92/1/62 81/1/62 78/1/62
f 7/1/63 17/1/63 92/1/63 85/1/63
f 17/1/63 4/1/63 91/1/63 92/1/63
f 91/1/64 93/1/64 83/1/64 75/1/64
f 4/1/65 19/1/65 93/1/65 91/1/65
f 19/1/66 6/1/66 90/1/66 93/1/66
f 90/1/67 94/1/67 80/1/67 77/1/67
f 6/1/68 16/1/68 94/1/68 90/1/68
f 16/1/69 3/1/69 89/1/69 94/1/69
f 89/1/70 95/1/70 82/1/70 74/1/70
f 3/1/71 18/1/71 95/1/71 89/1/71
f 18/1/72 5/1/72 88/1/72 95/1/72
f 88/1/73 96/1/73 79/1/73 76/1/73
f 5/1/74 15/1/74 96/1/74 88/1/74
f 15/1/75 2/1/75 87/1/75 96/1/75
f 86/1/76 97/1/76 84/1/76 72/1/76
f 1/1/77 20/1/77 97/1/77 86/1/77
f 7/1/78 85/1/78 100/1/78 99/1/78
f 115/1/79 114/1/79 102/1/79 105/1/79
f 20/1/80 7/1/80 99/1/80 98/1/80
f 85/1/81 97/1/81 101/1/81 100/1/81
f 97/1/82 20/1/82 98/1/82 101/1/82
f 104/1/83 105/1/83 109/1/83 108/1/83
f 103/1/84 102/1/84 118/1/84 119/1/84
f 117/1/85 115/1/85 105/1/85 104/1/85
f 116/1/86 117/1/86 104/1/86 103/1/86
f 107/1/87 108/1/87 112/1/87 111/1/87
f 103/1/88 104/1/88 108/1/88 107/1/88
f 105/1/89 102/1/89 106/1/89 109/1/89
f 102/1/90 103/1/90 107/1/90 106/1/90
f 110/1/91 111/1/91 112/1/91 113/1/91
f 109/1/92 106/1/92 110/1/92 113/1/92
f 106/1/93 107/1/93 111/1/93 110/1/93
f 108/1/94 109/1/94 113/1/94 112/1/94
f 99/1/95 100/1/95 117/1/95 116/1/95
f 100/1/96 101/1/96 115/1/96 117/1/96
f 98/1/97 99/1/97 116/1/97 114/1/97
f 101/1/98 98/1/98 114/1/98 115/1/98
f 120/1/99 121/1/99 125/1/99 124/1/99
f 114/1/100 116/1/100 121/1/100 120/1/100
f 116/1/101 103/1/101 119/1/101 121/1/101
f 102/1/102 114/1/102 120/1/102 118/1/102
f 124/1/103 125/1/103 129/1/103 128/1/103
f 118/1/104 120/1/104 124/1/104 122/1/104
f 121/1/105 119/1/105 123/1/105 125/1/105
f 119/1/106 118/1/106 122/1/106 123/1/106
f 128/1/107 129/1/107 127/1/107 126/1/107
f 122/1/108 124/1/108 128/1/108 126/1/108
f 125/1/109 123/1/109 127/1/109 129/1/109
f 123/1/110 122/1/110 126/1/110 127/1/110
