# Blender 4.5.4 LTS
# www.blender.org
mtllib mesh_1.mtl
o Plane
v -0.078003 0.507950 0.689951
v -0.100431 0.341257 0.697487
v 0.035013 0.495688 0.359895
v 0.013129 0.325657 0.366880
v -0.031754 0.509341 0.534937
v -0.095652 0.424835 0.724922
v -0.040502 0.324333 0.541298
v 0.032312 0.404707 0.326986
v -0.034127 0.416829 0.536631
v -0.078003 0.507950 -0.689951
v -0.100431 0.341257 -0.697487
v 0.035013 0.495688 -0.359895
v 0.013129 0.325657 -0.366880
v -0.031754 0.509341 -0.534937
v -0.095652 0.424835 -0.724922
v -0.040502 0.324333 -0.541298
v 0.032312 0.404707 -0.326986
v -0.034127 0.416829 -0.536631
vn 0.9520 -0.0641 0.2994
vn 0.9400 -0.0823 0.3310
vn 0.9528 -0.0460 0.3000
vn 0.9357 -0.1029 0.3374
vn 0.9520 -0.0641 -0.2994
vn 0.9400 -0.0823 -0.3310
vn 0.9528 -0.0460 -0.3000
vn 0.9357 -0.1029 -0.3374
vt 0.500000 0.500000
vt 1.000000 0.500000
vt 1.000000 1.000000
vt 0.500000 1.000000
vt 0.000000 0.500000
vt 0.000000 1.000000
vt 0.000000 0.000000
vt 0.500000 0.000000
vt 1.000000 0.000000
s 0
f 9/1/1 7/2/1 4/3/1 8/4/1
f 5/5/2 9/1/2 8/4/2 3/6/2
f 1/7/3 6/8/3 9/1/3 5/5/3
f 6/8/4 2/9/4 7/2/4 9/1/4
f 18/1/5 17/4/5 13/3/5 16/2/5
f 14/5/6 12/6/6 17/4/6 18/1/6
f 10/7/7 14/5/7 18/1/7 15/8/7
f 15/8/8 18/1/8 16/2/8 11/9/8
